<?xml version="1.0" standalone="no"?><!DOCTYPE svg PUBLIC "-//W3C//DTD SVG 1.1//EN" "http://www.w3.org/Graphics/SVG/1.1/DTD/svg11.dtd"><svg t="1721902919491" class="icon" viewBox="0 0 1024 1024" version="1.1" xmlns="http://www.w3.org/2000/svg" p-id="3884" xmlns:xlink="http://www.w3.org/1999/xlink" width="200" height="200"><path d="M484.352 751.104h-179.2c-10.752 0-19.968-8.704-19.968-19.968 0-10.752 8.704-19.968 19.968-19.968h179.2c10.752 0 19.968 8.704 19.968 19.968s-8.704 19.968-19.968 19.968z" fill="#37DAEA" opacity=".4" p-id="3885"></path><path d="M395.264 509.44c-117.248 0-212.992-95.744-212.992-212.992s95.744-212.992 212.992-212.992 212.992 95.744 212.992 212.992-95.744 212.992-212.992 212.992z m0-386.56c-95.744 0-173.568 77.824-173.568 173.568s77.824 173.568 173.568 173.568 173.568-77.824 173.568-173.568C568.32 200.704 490.496 122.88 395.264 122.88z" fill="#37DAEA" p-id="3886"></path><path d="M701.952 940.032H88.576c-10.752 0-19.968-8.704-19.968-19.968v-123.904c0-87.04 33.792-168.96 95.744-230.912 61.44-61.44 143.872-95.744 230.912-95.744 10.752 0 19.968 8.704 19.968 19.968 0 10.752-8.704 19.968-19.968 19.968-158.208 0-286.72 128.512-286.72 286.72v103.936h593.92c10.752 0 19.968 8.704 19.968 19.968-1.024 11.264-9.728 19.968-20.48 19.968z" fill="#37DAEA" p-id="3887"></path><path d="M797.184 847.36H727.04c-10.752 0-19.456-8.704-19.968-19.456 0-4.096-1.024-8.192-2.048-11.776v-0.512c-2.56-7.68-6.656-14.848-12.288-19.968-9.216-9.216-21.504-14.336-34.816-14.336-8.704 0-17.408 2.56-25.088 6.656-3.072 1.536-6.144 2.56-9.728 2.56-7.168 0-13.312-3.584-16.896-9.728l-34.816-58.88c-5.632-9.216-2.56-21.504 6.656-27.136 11.264-6.656 19.456-17.408 22.528-29.696 5.12-20.992-4.096-43.008-22.528-54.272-4.608-2.56-7.68-7.168-9.216-12.288s-0.512-10.24 2.048-14.848l34.304-58.368c3.584-6.144 10.24-9.728 16.896-9.728 3.584 0 6.656 1.024 9.728 2.56 7.68 4.096 15.872 6.656 24.576 6.656 8.192 0 16.896-2.048 24.576-6.144 15.872-8.704 25.6-24.576 25.6-41.472 0-5.12 2.048-10.24 5.632-13.824 3.584-3.584 8.704-5.632 13.824-5.632h69.632c10.752 0 19.456 8.704 19.968 19.456 0.512 12.8 5.632 25.088 14.848 34.304 9.728 9.216 21.504 14.336 35.328 14.336 8.192 0 16.384-2.56 24.064-6.144 4.608-3.072 10.24-4.096 15.36-2.56 5.12 1.024 9.728 4.608 12.8 9.216l34.816 58.88c2.56 4.608 3.584 9.728 2.048 14.848s-4.608 9.216-9.216 12.288c-10.752 6.144-18.944 16.896-22.016 29.184-3.584 12.288-1.536 26.112 5.12 37.376 4.096 6.656 9.216 12.288 16.384 16.896 4.608 2.56 8.192 6.656 9.728 11.776 1.536 5.12 1.024 10.752-2.048 15.36l-33.792 57.856c-5.12 8.704-16.384 12.288-25.6 7.68l-1.024-0.512s-0.512 0-0.512-0.512c-7.168-4.096-15.36-6.144-23.552-6.144-8.704 0-17.408 2.048-25.088 6.656-7.168 4.096-13.824 10.24-17.92 16.896v0.512c-4.608 7.168-6.656 15.36-7.168 24.064-1.024 9.216-9.728 17.92-20.992 17.92z m-53.248-39.424h36.352c2.048-8.704 5.632-16.896 10.24-24.576 7.68-12.8 18.944-24.064 32.768-31.744 13.312-7.68 28.672-11.264 44.032-11.264 8.704 0 17.92 1.536 26.112 4.096l16.384-27.648c-6.144-5.632-11.264-12.288-15.36-19.456-12.288-20.48-15.36-45.056-9.216-68.096 4.096-15.36 12.8-29.696 24.576-40.448l-16.896-28.672c-8.192 2.56-17.408 4.096-26.112 4.096h-0.512c-24.064 0-46.592-9.216-63.488-25.6-11.776-11.776-19.968-26.112-23.552-41.984h-35.328c-5.632 23.552-21.504 44.544-44.032 56.832-13.312 7.168-28.16 11.264-43.008 11.264-8.704 0-17.92-1.536-26.112-4.096l-16.896 28.672c23.04 21.504 33.28 54.784 25.088 86.016-4.096 15.872-12.8 30.208-24.576 41.472l17.408 28.672c8.704-2.56 17.92-4.096 27.136-4.096 23.552 0 45.568 8.704 61.952 25.088 10.752 10.24 18.432 23.04 22.528 36.864 0 2.048 0.512 3.072 0.512 4.608z" fill="#37DAEA" p-id="3888"></path><path d="M761.856 727.552c-4.096 0-7.168-0.512-10.752-1.024-37.376-5.12-65.024-36.864-65.024-74.752 0-37.376 28.16-69.632 65.024-74.752 3.072-0.512 6.656-1.024 10.752-1.024 10.752 0 20.992 2.048 31.232 6.656 27.136 12.288 44.544 38.912 44.544 68.608 0 29.696-17.408 56.832-44.544 68.608-9.728 5.632-20.48 7.68-31.232 7.68z m0-111.616c-1.536 0-3.072 0-3.584 0.512h-1.024c-17.92 2.56-31.232 17.92-31.232 35.84s13.312 33.28 31.232 35.328h1.024c1.024 0 2.048 0.512 3.584 0.512 5.12 0 10.24-1.024 14.848-3.072 12.8-5.632 20.992-18.432 20.992-32.768s-8.192-27.136-20.992-32.768c-4.608-2.048-9.728-3.584-14.848-3.584z" fill="#37DAEA" opacity=".4" p-id="3889"></path></svg>